<?xml version="1.0" encoding="UTF-8"?>
<svg width="700pt" height="700pt" version="1.1" viewBox="0 0 700 700" xmlns="http://www.w3.org/2000/svg">
 <path d="m294 333.76c-31.109-2.332-63.746-6.3633-96.785-11.648-19.031-3.043-36.938-6.3047-53.191-9.5625-5.6797-1.1406-10.746-2.1992-15.129-3.1445-1.1133-0.24219-2.082-0.45312-2.8945-0.63281v-140.81c0-15.441 12.543-27.957 27.965-27.957h98.035v-56.027c0-15.449 12.559-27.973 28.082-27.973h139.84c15.508 0 28.082 12.574 28.082 27.973v56.027h98.035c15.445 0 27.965 12.531 27.965 27.957v140.81c-0.81641 0.17969-1.7812 0.39062-2.8984 0.63281-4.3945 0.94531-9.4727 2.0039-15.164 3.1445-16.285 3.2578-34.23 6.5195-53.293 9.5625-32.996 5.2695-65.586 9.293-96.645 11.629v-11.742c0-7.7852-6.25-13.996-13.957-13.996h-84.086c-7.6133 0-13.957 6.2656-13.957 13.996zm0 14.047v16.199c0 7.7852 6.25 13.996 13.957 13.996h84.086c7.6133 0 13.957-6.2656 13.957-13.996v-16.219c31.988-2.3555 65.508-6.4805 99.43-11.895 19.297-3.082 37.465-6.3828 53.965-9.6875 5.4336-1.0859 10.32-2.1016 14.605-3.0234v152.86c0 15.441-12.449 27.957-28.023 27.957h-391.95c-15.477 0-28.023-12.531-28.023-27.957v-152.86c4.2734 0.91797 9.1445 1.9336 14.562 3.0195 16.465 3.3047 34.598 6.6055 53.863 9.6875 33.965 5.4297 67.531 9.5625 99.574 11.914zm-14-256.94v49.133h140v-49.133c0-3.8555-3.1953-6.8672-7.1367-6.8672h-125.73c-3.9492 0-7.1367 3.0742-7.1367 6.8672z" fill-rule="evenodd"/>
</svg>
